<svg viewBox="0 0 24 24" fill="none" xmlns="http://www.w3.org/2000/svg" stroke="#0af51a"><g id="SVGRepo_bgCarrier" stroke-width="0"></g><g id="SVGRepo_tracerCarrier" stroke-linecap="round" stroke-linejoin="round"></g><g id="SVGRepo_iconCarrier"> <g id="style=stroke"> <g id="check-box"> <path id="vector (Stroke)" fill-rule="evenodd" clip-rule="evenodd" d="M16.5303 8.96967C16.8232 9.26256 16.8232 9.73744 16.5303 10.0303L11.9041 14.6566C11.2207 15.34 10.1126 15.34 9.42923 14.6566L7.46967 12.697C7.17678 12.4041 7.17678 11.9292 7.46967 11.6363C7.76256 11.3434 8.23744 11.3434 8.53033 11.6363L10.4899 13.5959C10.5875 13.6935 10.7458 13.6935 10.8434 13.5959L15.4697 8.96967C15.7626 8.67678 16.2374 8.67678 16.5303 8.96967Z" fill="#0af51a"></path> <path id="vector (Stroke)_2" fill-rule="evenodd" clip-rule="evenodd" d="M1.25 8C1.25 4.27208 4.27208 1.25 8 1.25H16C19.7279 1.25 22.75 4.27208 22.75 8V16C22.75 19.7279 19.7279 22.75 16 22.75H8C4.27208 22.75 1.25 19.7279 1.25 16V8ZM8 2.75C5.10051 2.75 2.75 5.10051 2.75 8V16C2.75 18.8995 5.10051 21.25 8 21.25H16C18.8995 21.25 21.25 18.8995 21.25 16V8C21.25 5.10051 18.8995 2.75 16 2.75H8Z" fill="#0af51a"></path> </g> </g> </g></svg>